<svg width="48" height="50" viewBox="0 0 48 50" fill="none" xmlns="http://www.w3.org/2000/svg">
<path d="M23.9993 0.673397C17.5193 0.614633 11.0408 0.906792 4.59272 1.54858C3.5455 1.59448 2.55554 2.03694 1.82554 2.78538C1.09553 3.53381 0.680712 4.53159 0.666016 5.5744C0.68009 12.4358 0.519983 27.3244 2.9126 32.8153C5.2043 36.8472 8.15446 40.4715 11.6422 43.5397C14.1826 45.7137 20.3313 49.666 23.9993 49.666C27.6674 49.666 33.8161 45.7049 36.3583 43.5397C39.8461 40.4717 42.7963 36.8473 45.0878 32.8153C47.4752 27.3384 47.155 12.5111 47.3327 5.62691C47.3104 4.58111 46.8888 3.58296 46.1536 2.83521C45.4184 2.08747 44.4247 1.64622 43.3743 1.60109C36.9362 0.962494 30.4694 0.652859 23.9993 0.673397Z" fill="#106048"/>
<path d="M11.9736 19.0396V24.1752L14.755 22.3356V17.1982L11.9736 19.0396Z" fill="white"/>
<path d="M8.34375 28.826V33.9615L11.1252 32.1219V26.9863L8.34375 28.826Z" fill="white"/>
<path d="M26.5226 21.6287V23.8779L19.4855 28.5339V33.6694L38.3098 21.2173C39.2179 20.6358 39.9966 19.8752 40.5978 18.9826C41.199 18.09 41.6101 17.0843 41.8055 16.0275C42.0347 14.9782 42.0455 13.8934 41.8374 12.8398C41.6292 11.7862 41.2064 10.7861 40.5951 9.90126C40.0111 8.99729 39.2471 8.22198 38.3503 7.62319C37.4534 7.02441 36.4427 6.61484 35.3806 6.41978C34.326 6.19164 33.2356 6.1808 32.1766 6.38791C31.1176 6.59503 30.1124 7.0157 29.2231 7.62403L16.6425 15.954V21.0896L23.8256 16.3391V18.5883L13.0078 25.742V30.5748L26.5226 21.6287Z" fill="white"/>
<path d="M14.8154 31.6209V36.7564L17.5968 34.9168V29.7812L14.8154 31.6209Z" fill="white"/>
</svg>
